<svg width="24" height="24" viewBox="0 0 24 24" fill="none" xmlns="http://www.w3.org/2000/svg">
<path d="M12 24C18.6274 24 24 18.6274 24 12C24 5.37258 18.6274 0 12 0C5.37258 0 0 5.37258 0 12C0 18.6274 5.37258 24 12 24Z" fill="#627EEA"/>
<path d="M12.373 3V9.6525L17.9958 12.165L12.373 3Z" fill="#F8F8FA"/>
<path d="M12.3733 3L6.74976 12.165L12.3733 9.6525V3Z" fill="#F8F8FA"/>
<path d="M12.373 16.4759V20.9962L17.9995 13.2119L12.373 16.4759Z" fill="#F8F8FA"/>
<path d="M12.373 20.9962V16.4752L6.74951 13.2119L12.373 20.9962Z" fill="#F8F8FA"/>
<path d="M12.373 15.4298L17.9958 12.1651L12.373 9.65405V15.4298Z" fill="white" fill-opacity="0.2"/>
<path d="M6.74951 12.1651L12.373 15.4298V9.65405L6.74951 12.1651Z" fill="#F8F8FA"/>
</svg>
